<svg version="1.1" id="Layer_1" xmlns="http://www.w3.org/2000/svg" xmlns:xlink="http://www.w3.org/1999/xlink" x="0px" y="0px" style="enable-background:new 0 0 2267.72 1700.79;" xml:space="preserve" viewBox="57.3 639.38 2153.12 422.05">
<style type="text/css">
	.st0{fill:#4C4CFF;}
</style>
<g>
	<rect x="57.33" y="639.39" class="st0" width="150.09" height="422.01"/>
	<path class="st0" d="M615.66,1061.4H465.57L290.95,666.5v-27.11h156.93l167.78,389.77V1061.4z M290.95,1061.4V751.81l138.39,309.59   H290.95z M615.66,639.39v309.87L477.84,639.39H615.66z"/>
	<path class="st0" d="M848.99,1061.4H698.9V639.39h150.09V1061.4z M884.65,1061.4V639.39c56.88,5.14,99.2,27.77,126.97,67.91   c24.35,35.57,36.52,83.32,36.52,143.24c0,59.92-12.18,107.67-36.52,143.24C983.85,1034.11,941.53,1056.65,884.65,1061.4"/>
	<path class="st0" d="M1273.21,1061.4h-150.09V639.39h150.09V1061.4z M1490.06,1061.4h-182.9V639.39h179.76L1312.3,831.14   L1490.06,1061.4z"/>
	<path class="st0" d="M1507.11,1061.4l94.73-346.4l67.05,346.4H1507.11z M1622.96,639.39h150.66l81.89,422.01h-150.37   L1622.96,639.39z"/>
	<path class="st0" d="M2070.86,1061.4h-150.09V639.39h150.09V1061.4z M2085.41,1061.4l124.98-195.17v195.17H2085.41z"/>
</g>
</svg>