<svg class="icon menu-icon" height="20px" width="20px" viewBox="138 -841 887 728" xmlns="http://www.w3.org/2000/svg">
  <path d="M 530.778 -445.03 C 484.987 -445.03 446.374 -456.398 414.941 -479.134 C 383.508 -501.871 367.792 -529.8 367.792 -562.922 C 367.792 -596.045 383.508 -623.973 414.941 -646.71 C 446.374 -669.446 484.987 -680.814 530.778 -680.814 C 576.569 -680.814 615.182 -669.446 646.615 -646.71 C 678.048 -623.973 693.764 -596.045 693.764 -562.922 C 693.764 -529.8 678.048 -501.871 646.615 -479.134 C 615.182 -456.398 576.569 -445.03 530.778 -445.03 Z M 530.778 -512.397 C 550.957 -512.397 567.644 -517.169 580.838 -526.712 C 594.032 -536.256 600.629 -548.326 600.629 -562.922 C 600.629 -577.519 594.032 -589.588 580.838 -599.132 C 567.644 -608.676 550.957 -613.447 530.778 -613.447 C 510.599 -613.447 493.912 -608.676 480.718 -599.132 C 467.524 -589.588 460.927 -577.519 460.927 -562.922 C 460.927 -548.326 467.524 -536.256 480.718 -526.712 C 493.912 -517.169 510.599 -512.397 530.778 -512.397 Z M 530.778 -478.713 Z M 530.778 -743.971 L 251.373 -668.183 L 251.373 -509.028 C 251.373 -478.713 257.194 -449.24 268.836 -420.609 C 280.478 -391.978 296.389 -365.031 316.568 -339.768 C 349.165 -351.558 383.314 -360.821 419.016 -367.557 C 454.718 -374.294 491.972 -377.662 530.778 -377.662 C 569.584 -377.662 606.838 -374.294 642.54 -367.557 C 678.242 -360.821 712.391 -351.558 744.989 -339.768 C 765.167 -365.031 781.078 -391.978 792.72 -420.609 C 804.362 -449.24 810.183 -478.713 810.183 -509.028 L 810.183 -668.183 L 530.778 -743.971 Z M 530.778 -310.295 C 502.838 -310.295 475.674 -308.05 449.285 -303.559 C 422.896 -299.068 397.673 -292.893 373.613 -285.033 C 396.12 -268.191 420.568 -253.595 446.957 -241.244 C 473.345 -228.894 501.286 -219.35 530.778 -212.613 C 560.27 -219.35 588.211 -228.894 614.6 -241.244 C 640.988 -253.595 665.436 -268.191 687.943 -285.033 C 663.883 -292.893 638.66 -299.068 612.271 -303.559 C 585.883 -308.05 558.719 -310.295 530.778 -310.295 Z M 530.778 -145.246 C 525.345 -145.246 520.3 -145.527 515.644 -146.088 C 510.987 -146.65 506.33 -147.492 501.673 -148.614 C 396.896 -173.877 313.463 -220.613 251.373 -288.822 C 189.283 -357.031 158.238 -430.434 158.238 -509.028 L 158.238 -668.183 C 158.238 -682.218 163.865 -694.849 175.119 -706.077 C 186.373 -717.305 200.925 -725.445 218.776 -730.498 L 498.181 -806.286 C 509.046 -809.093 519.913 -810.496 530.778 -810.496 C 541.643 -810.496 552.51 -809.093 563.375 -806.286 L 842.78 -730.498 C 860.631 -725.445 875.183 -717.305 886.437 -706.077 C 897.692 -694.849 903.318 -682.218 903.318 -668.183 L 903.318 -509.028 C 903.318 -430.434 872.273 -357.031 810.183 -288.822 C 748.093 -220.613 664.66 -173.877 559.883 -148.614 C 555.226 -147.492 550.569 -146.65 545.912 -146.088 C 541.256 -145.527 536.211 -145.246 530.778 -145.246 Z"/>
</svg>