<svg class="icon menu-icon" version="1.1" id="Layer_1" xmlns="http://www.w3.org/2000/svg" xmlns:xlink="http://www.w3.org/1999/xlink" x="0px" y="0px" width="20px" height="20px" viewBox="0 0 20 20" style="enable-background:new 0 0 20 20;" xml:space="preserve">
    <path class="st0" d="M2.1,15.8h3.1v-4.3c0-0.2,0.1-0.4,0.3-0.6c0.2-0.2,0.5-0.2,0.7-0.2h4.2c0.3,0,0.5,0.1,0.7,0.2 c0.2,0.2,0.3,0.4,0.3,0.6v4.3h3.2V8.1L8.4,4.2L2.1,8.1V15.8z M0,15.8V8.1c0-0.3,0.1-0.5,0.2-0.8c0.1-0.2,0.4-0.4,0.6-0.6l6.3-3.9 c0.4-0.2,0.8-0.3,1.3-0.3s0.9,0.1,1.3,0.3L16,6.7c0.3,0.2,0.5,0.4,0.6,0.6c0.1,0.2,0.2,0.5,0.2,0.8v7.7c0,0.5-0.2,0.9-0.6,1.2 c-0.4,0.3-0.9,0.5-1.5,0.5h-4.2c-0.3,0-0.5-0.1-0.7-0.2c-0.2-0.2-0.3-0.4-0.3-0.6v-4.3H7.3v4.3c0,0.2-0.1,0.4-0.3,0.6 s-0.5,0.2-0.7,0.2H2.1c-0.6,0-1.1-0.2-1.5-0.5C0.2,16.7,0,16.3,0,15.8z"/>
</svg>