<svg xmlns="http://www.w3.org/2000/svg" height="24px" viewBox="0 -960 960 960" width="24px" fill="#e8eaed"><path d="M 142.9 -101 q -33 0 -56.5 -23.5 T 62.9 -181 v -560 q 0 -33 23.5 -56.5 T 142.9 -821 h 168 q 13 -36 43.5 -58 t 68.5 -22 q 38 0 68.5 22 t 43.5 58 h 168 q 33 0 56.5 23.5 T 782.9 -741 v 201 q 0 17 -11.5 28.5 T 742.9 -500 q -17 0 -28.5 -11.5 T 702.9 -540 v -201 H 142.9 v 560 h 200 q 17 0 28.5 11.5 T 382.9 -141 q 0 17 -11.5 28.5 T 342.9 -101 H 142.9 Z m 0 -120 v 40 v -560 v 243 v -3 v 280 Z m 120 -40 h 100 q 17 0 28.5 -11.5 T 402.9 -301 q 0 -17 -11.5 -28.5 T 362.9 -341 H 262.9 q -17 0 -28.5 11.5 T 222.9 -301 q 0 17 11.5 28.5 T 262.9 -261 Z m 0 -160 h 200 q 17 0 28.5 -11.5 T 502.9 -461 q 0 -17 -11.5 -28.5 T 462.9 -501 H 262.9 q -17 0 -28.5 11.5 T 222.9 -461 q 0 17 11.5 28.5 T 262.9 -421 Z m 0 -160 h 320 q 17 0 28.5 -11.5 T 622.9 -621 q 0 -17 -11.5 -28.5 T 582.9 -661 H 262.9 q -17 0 -28.5 11.5 T 222.9 -621 q 0 17 11.5 28.5 T 262.9 -581 Z m 160 -190 q 13 0 21.5 -8.5 T 452.9 -801 q 0 -13 -8.5 -21.5 T 422.9 -831 q -13 0 -21.5 8.5 T 392.9 -801 q 0 13 8.5 21.5 T 422.9 -771 Z M 662.9 -21 q -83 0 -141.5 -58.5 T 462.9 -221 q 0 -83 58.5 -141.5 T 662.9 -421 q 83 0 141.5 58.5 T 862.9 -221 q 0 83 -58.5 141.5 T 662.9 -21 Z m -20 -180 v 80 q 0 8 6 14 t 14 6 q 8 0 14 -6 t 6 -14 v -80 h 80 q 8 0 14 -6 t 6 -14 q 0 -8 -6 -14 t -14 -6 h -80 v -80 q 0 -8 -6 -14 t -14 -6 q -8 0 -14 6 t -6 14 v 80 h -80 q -8 0 -14 6 t -6 14 q 0 8 6 14 t 14 6 h 80 Z"/></svg>