<svg class="icon menu-icon" version="1.1" id="Layer_1" xmlns="http://www.w3.org/2000/svg" xmlns:xlink="http://www.w3.org/1999/xlink" x="0px" y="0px" width="25px" height="20px" viewBox="0 0 25 20" style="enable-background:new 0 0 25 20;" xml:space="preserve">
    <path transform="translate(-6, 0)" class="st0" d="M13.7,12.2v1.7c0,0.2,0.1,0.4,0.3,0.6s0.4,0.2,0.7,0.2s0.5-0.1,0.7-0.2s0.3-0.4,0.3-0.6v-1.7h2.1 c0.3,0,0.5-0.1,0.7-0.2c0.2-0.2,0.3-0.4,0.3-0.6s-0.1-0.4-0.3-0.6c-0.2-0.2-0.4-0.2-0.7-0.2h-2.1V8.9c0-0.2-0.1-0.4-0.3-0.6 C15.3,8.1,15,8,14.7,8S14.2,8.1,14,8.3c-0.2,0.2-0.3,0.4-0.3,0.6v1.7h-2.1c-0.3,0-0.5,0.1-0.7,0.2c-0.2,0.2-0.3,0.4-0.3,0.6 s0.1,0.4,0.3,0.6c0.2,0.2,0.4,0.2,0.7,0.2H13.7z M8.5,18c-0.6,0-1.1-0.2-1.5-0.5s-0.6-0.7-0.6-1.2V3c0-0.6-0.1-1.1,0.3-1.5 C7,1.2,7.4,1.4,8.5,1.4h7.5c0.3,0,0.5,0,0.8,0.1c0.2,0.1,0.5,0.2,0.7,0.4l5.1,4c0.2,0.2,0.3,0.3,0.5,0.5C23,6.6,23,6.9,23,7.2v9.3 c0,0.6,0,1.5-0.5,1.5c-0.6,0-1.3,0-3.7,0H8.5z M15.7,6.4V3H8.5v13.3H21V7.2h-4.1c-0.3,0-0.6-0.1-0.8-0.2C15.8,6.8,15.7,6.6,15.7,6.4 L15.7,6.4z M8.5,3v4.2V3v13.3V3z"/>
</svg>