<svg class="icon icon-stroke" version="1.1" id="Layer_1" x="0px" y="0px" width="20px" height="20px" viewBox="0 0 24 24" style="enable-background:new 0 0 24 24;" xmlns="http://www.w3.org/2000/svg">
  <path stroke-width="0.4" class="st0" d="M 21.968 18.788 C 21.268 21.288 18.668 22.788 16.168 21.988 C 15.768 21.888 15.068 21.588 14.768 21.388 L 14.668 21.288 L 15.168 20.788 L 15.668 20.288 L 15.968 20.488 C 16.468 20.788 16.868 20.788 17.468 20.788 C 18.168 20.788 18.368 20.688 18.968 20.488 C 19.668 20.188 20.268 19.588 20.568 18.888 C 20.868 18.388 20.868 18.088 20.868 17.388 C 20.868 16.688 20.868 16.488 20.568 15.888 C 20.168 14.988 19.368 14.388 18.368 14.088 C 17.968 13.988 17.068 13.988 16.668 14.088 C 15.768 14.388 14.968 14.988 14.568 15.788 C 14.468 16.088 14.268 16.488 14.268 16.588 C 14.268 16.588 14.468 16.688 15.468 16.688 C 16.068 16.688 16.668 16.688 16.768 16.688 C 16.868 16.688 16.868 16.788 16.968 16.888 C 16.968 16.988 16.968 16.988 16.968 17.188 C 16.968 17.288 16.268 18.088 15.468 18.988 C 14.468 20.088 14.068 20.688 13.968 20.688 C 13.768 20.788 13.568 20.788 13.368 20.688 C 13.168 20.588 10.468 17.388 10.368 17.188 C 10.268 16.988 10.368 16.888 10.468 16.788 C 10.568 16.788 10.868 16.688 11.768 16.688 L 12.968 16.688 L 12.968 16.588 C 12.968 16.588 12.968 16.388 13.068 16.288 C 13.268 15.588 13.568 14.788 14.168 14.188 C 14.868 13.388 15.968 12.788 17.068 12.688 C 17.968 12.588 18.968 12.688 19.768 13.088 C 20.796 13.716 21.634 14.594 21.991 15.792 C 22.258 16.69 22.225 17.845 21.968 18.788 Z"/>
  <path d="M 2.527 20.959 C 2.074 20.959 1.685 20.797 1.362 20.475 C 1.039 20.152 0.878 19.763 0.878 19.31 L 0.878 5.364 C 0.878 4.911 1.039 4.523 1.362 4.2 C 1.685 3.877 2.074 3.715 2.527 3.715 L 8.091 3.715 C 7.887 3.218 7.932 2.744 8.226 2.293 C 8.52 1.843 8.948 1.618 9.511 1.618 C 10.074 1.618 10.502 1.843 10.796 2.293 C 11.09 2.744 11.127 3.218 10.909 3.715 L 16.473 3.715 C 16.926 3.715 17.314 3.877 17.637 4.2 C 17.96 4.523 18.122 4.911 18.122 5.364 L 18.122 10.547 C 18.122 10.679 18.078 10.79 17.989 10.879 C 17.901 10.968 17.792 11.013 17.661 11.013 C 17.53 11.013 17.419 10.968 17.327 10.879 C 17.236 10.79 17.19 10.679 17.19 10.547 L 17.19 5.364 C 17.19 5.185 17.115 5.021 16.966 4.871 C 16.816 4.722 16.652 4.647 16.473 4.647 L 2.527 4.647 C 2.348 4.647 2.183 4.722 2.034 4.871 C 1.885 5.021 1.81 5.185 1.81 5.364 L 1.81 19.31 C 1.81 19.489 1.885 19.654 2.034 19.803 C 2.183 19.952 2.348 20.027 2.527 20.027 L 8.604 20.027 C 8.736 20.027 8.846 20.071 8.936 20.159 C 9.025 20.248 9.07 20.357 9.07 20.488 C 9.07 20.618 9.025 20.729 8.936 20.821 C 8.846 20.913 8.736 20.959 8.604 20.959 L 2.527 20.959 Z M 1.81 19.336 L 1.81 20.027 L 1.81 4.647 L 1.81 11.965 L 1.81 11.907 L 1.81 19.336 Z M 4.956 17.078 L 7.246 17.078 C 7.378 17.078 7.488 17.034 7.578 16.946 C 7.667 16.857 7.712 16.748 7.712 16.617 C 7.712 16.487 7.667 16.376 7.578 16.284 C 7.488 16.192 7.378 16.146 7.246 16.146 L 4.956 16.146 C 4.824 16.146 4.713 16.19 4.624 16.279 C 4.535 16.367 4.49 16.476 4.49 16.607 C 4.49 16.737 4.535 16.849 4.624 16.94 C 4.713 17.032 4.824 17.078 4.956 17.078 Z M 4.956 12.803 L 11.714 12.803 C 11.846 12.803 11.957 12.759 12.046 12.671 C 12.135 12.582 12.18 12.473 12.18 12.342 C 12.18 12.212 12.135 12.101 12.046 12.009 C 11.957 11.917 11.846 11.871 11.714 11.871 L 4.956 11.871 C 4.824 11.871 4.713 11.915 4.624 12.004 C 4.535 12.092 4.49 12.201 4.49 12.332 C 4.49 12.462 4.535 12.573 4.624 12.665 C 4.713 12.757 4.824 12.803 4.956 12.803 Z M 4.956 8.528 L 14.044 8.528 C 14.176 8.528 14.287 8.484 14.376 8.395 C 14.465 8.307 14.51 8.198 14.51 8.067 C 14.51 7.937 14.465 7.826 14.376 7.734 C 14.287 7.642 14.176 7.596 14.044 7.596 L 4.956 7.596 C 4.824 7.596 4.713 7.64 4.624 7.728 C 4.535 7.817 4.49 7.926 4.49 8.057 C 4.49 8.187 4.535 8.298 4.624 8.39 C 4.713 8.482 4.824 8.528 4.956 8.528 Z M 9.5 4.172 C 9.702 4.172 9.869 4.106 10.001 3.974 C 10.133 3.842 10.199 3.675 10.199 3.473 C 10.199 3.271 10.133 3.104 10.001 2.972 C 9.869 2.84 9.702 2.774 9.5 2.774 C 9.298 2.774 9.131 2.84 8.999 2.972 C 8.867 3.104 8.801 3.271 8.801 3.473 C 8.801 3.675 8.867 3.842 8.999 3.974 C 9.131 4.106 9.298 4.172 9.5 4.172 Z"/>
</svg>